<svg width="18" height="18" viewBox="0 0 18 18" fill="none" xmlns="http://www.w3.org/2000/svg">
<path d="M12.4868 5.29323C12.6614 5.12975 12.8924 5.04085 13.1309 5.0453C13.3695 5.04975 13.597 5.1472 13.7654 5.31708C13.9338 5.48696 14.03 5.71599 14.0337 5.95584C14.0373 6.1957 13.9482 6.42761 13.785 6.60264L8.82276 12.7025C8.7376 12.7927 8.63522 12.8648 8.52174 12.9143C8.40827 12.9638 8.28603 12.9898 8.16233 12.9907C8.03864 12.9917 7.91603 12.9675 7.80183 12.9197C7.68764 12.8719 7.58421 12.8015 7.49772 12.7126L4.28806 9.41355C4.19861 9.32787 4.12724 9.22496 4.07821 9.11095C4.02918 8.99693 4.00349 8.87415 4.00269 8.74994C4.00188 8.62572 4.02596 8.50261 4.07351 8.38795C4.12105 8.27329 4.19107 8.16943 4.2794 8.08256C4.36773 7.9957 4.47256 7.92761 4.58762 7.88235C4.70269 7.8371 4.82564 7.8156 4.94914 7.81916C5.07265 7.82271 5.19417 7.85124 5.30646 7.90304C5.41875 7.95484 5.51951 8.02885 5.60273 8.12066L8.14282 10.7302L12.4632 5.32011C12.471 5.3107 12.4793 5.30173 12.488 5.29325L12.4868 5.29323Z" fill="#F4F4FD"/>
</svg>
